<?xml version="1.0"?>
<!-- Generated by SVGo and Plotinum VG -->
<svg width="10in" height="8in"
	xmlns="http://www.w3.org/2000/svg"
	xmlns:xlink="http://www.w3.org/1999/xlink">
<g transform="scale(1, -1) translate(0, -720)">
<path d="M0,0L900,0L900,720L0,720Z" style="fill:#FFFFFF" />
<text x="404.8" y="-705.56" transform="scale(1, -1)"
	style="font-family:Times;font-weight:normal;font-style:normal;font-size:12pt">Lagrange Plots</text>
<text x="470.62" y="-4.8267" transform="scale(1, -1)"
	style="font-family:Times;font-weight:normal;font-style:normal;font-size:12pt">X</text>
<text x="48.958" y="-19.502" transform="scale(1, -1)"
	style="font-family:Times;font-weight:normal;font-style:normal;font-size:10pt">0</text>
<text x="261.47" y="-19.502" transform="scale(1, -1)"
	style="font-family:Times;font-weight:normal;font-style:normal;font-size:10pt">1</text>
<text x="473.98" y="-19.502" transform="scale(1, -1)"
	style="font-family:Times;font-weight:normal;font-style:normal;font-size:10pt">2</text>
<text x="686.49" y="-19.502" transform="scale(1, -1)"
	style="font-family:Times;font-weight:normal;font-style:normal;font-size:10pt">3</text>
<path d="M52.083,31.538L52.083,41.538" style="fill:none;stroke:#000000;stroke-width:0.625" />
<path d="M264.59,31.538L264.59,41.538" style="fill:none;stroke:#000000;stroke-width:0.625" />
<path d="M477.1,31.538L477.1,41.538" style="fill:none;stroke:#000000;stroke-width:0.625" />
<path d="M689.61,31.538L689.61,41.538" style="fill:none;stroke:#000000;stroke-width:0.625" />
<path d="M158.34,36.538L158.34,41.538" style="fill:none;stroke:#000000;stroke-width:0.625" />
<path d="M370.85,36.538L370.85,41.538" style="fill:none;stroke:#000000;stroke-width:0.625" />
<path d="M583.36,36.538L583.36,41.538" style="fill:none;stroke:#000000;stroke-width:0.625" />
<path d="M795.87,36.538L795.87,41.538" style="fill:none;stroke:#000000;stroke-width:0.625" />
<path d="M52.083,41.538L900,41.538" style="fill:none;stroke:#000000;stroke-width:0.625" />
<g transform="rotate(90)">
<text x="369" y="14.443" transform="scale(1, -1)"
	style="font-family:Times;font-weight:normal;font-style:normal;font-size:12pt">Y</text>
</g>
<text x="25.52" y="-42.198" transform="scale(1, -1)"
	style="font-family:Times;font-weight:normal;font-style:normal;font-size:10pt">0</text>
<text x="25.52" y="-247.17" transform="scale(1, -1)"
	style="font-family:Times;font-weight:normal;font-style:normal;font-size:10pt">5</text>
<text x="19.27" y="-452.14" transform="scale(1, -1)"
	style="font-family:Times;font-weight:normal;font-style:normal;font-size:10pt">10</text>
<text x="19.27" y="-657.11" transform="scale(1, -1)"
	style="font-family:Times;font-weight:normal;font-style:normal;font-size:10pt">15</text>
<path d="M34.895,48.101L44.895,48.101" style="fill:none;stroke:#000000;stroke-width:0.625" />
<path d="M34.895,253.07L44.895,253.07" style="fill:none;stroke:#000000;stroke-width:0.625" />
<path d="M34.895,458.04L44.895,458.04" style="fill:none;stroke:#000000;stroke-width:0.625" />
<path d="M34.895,663.01L44.895,663.01" style="fill:none;stroke:#000000;stroke-width:0.625" />
<path d="M39.895,89.095L44.895,89.095" style="fill:none;stroke:#000000;stroke-width:0.625" />
<path d="M39.895,130.09L44.895,130.09" style="fill:none;stroke:#000000;stroke-width:0.625" />
<path d="M39.895,171.08L44.895,171.08" style="fill:none;stroke:#000000;stroke-width:0.625" />
<path d="M39.895,212.08L44.895,212.08" style="fill:none;stroke:#000000;stroke-width:0.625" />
<path d="M39.895,294.06L44.895,294.06" style="fill:none;stroke:#000000;stroke-width:0.625" />
<path d="M39.895,335.06L44.895,335.06" style="fill:none;stroke:#000000;stroke-width:0.625" />
<path d="M39.895,376.05L44.895,376.05" style="fill:none;stroke:#000000;stroke-width:0.625" />
<path d="M39.895,417.05L44.895,417.05" style="fill:none;stroke:#000000;stroke-width:0.625" />
<path d="M39.895,499.04L44.895,499.04" style="fill:none;stroke:#000000;stroke-width:0.625" />
<path d="M39.895,540.03L44.895,540.03" style="fill:none;stroke:#000000;stroke-width:0.625" />
<path d="M39.895,581.02L44.895,581.02" style="fill:none;stroke:#000000;stroke-width:0.625" />
<path d="M39.895,622.02L44.895,622.02" style="fill:none;stroke:#000000;stroke-width:0.625" />
<path d="M44.895,48.101L44.895,700.73" style="fill:none;stroke:#000000;stroke-width:0.625" />
<path d="M52.083,48.101L54.208,48.105L56.333,48.117L58.458,48.137L60.583,48.166L62.708,48.203L64.833,48.248L66.958,48.301L69.083,48.363L71.208,48.433L73.334,48.511L75.459,48.597L77.584,48.691L79.709,48.793L81.834,48.904L83.959,49.023L86.084,49.15L88.209,49.285L90.334,49.429L92.46,49.58L94.585,49.74L96.71,49.908L98.835,50.085L100.96,50.269L103.09,50.462L105.21,50.663L107.34,50.872L109.46,51.089L111.59,51.315L113.71,51.548L115.84,51.79L117.96,52.04L120.09,52.298L122.21,52.565L124.34,52.839L126.46,53.122L128.59,53.413L130.71,53.713L132.84,54.02L134.96,54.336L137.09,54.66L139.21,54.992L141.34,55.332L143.46,55.68L145.59,56.037L147.71,56.402L149.84,56.775L151.96,57.156L154.09,57.546L156.21,57.943L158.34,58.349L160.46,58.763L162.59,59.185L164.71,59.616L166.84,60.054L168.96,60.501L171.09,60.956L173.21,61.42L175.34,61.891L177.46,62.371L179.59,62.858L181.71,63.354L183.84,63.859L185.96,64.371L188.09,64.892L190.21,65.421L192.34,65.958L194.46,66.503L196.59,67.056L198.71,67.618L200.84,68.188L202.97,68.766L205.09,69.352L207.22,69.946L209.34,70.549L211.47,71.16L213.59,71.779L215.72,72.406L217.84,73.041L219.97,73.685L222.09,74.337L224.22,74.997L226.34,75.665L228.47,76.341L230.59,77.026L232.72,77.719L234.84,78.42L236.97,79.129L239.09,79.846L241.22,80.572L243.34,81.306L245.47,82.048L247.59,82.798L249.72,83.556L251.84,84.323L253.97,85.098L256.09,85.881L258.22,86.672L260.34,87.471L262.47,88.279L264.59,89.095L266.72,89.919L268.84,90.751L270.97,91.591L273.09,92.44L275.22,93.297L277.34,94.162L279.47,95.035L281.59,95.916L283.72,96.806L285.84,97.703L287.97,98.609L290.09,99.524L292.22,100.45L294.34,101.38L296.47,102.32L298.59,103.26L300.72,104.22L302.85,105.18L304.97,106.15L307.1,107.13L309.22,108.12L311.35,109.12L313.47,110.12L315.6,111.13L317.72,112.15L319.85,113.18L321.97,114.22L324.1,115.27L326.22,116.32L328.35,117.38L330.47,118.45L332.6,119.53L334.72,120.61L336.85,121.71L338.97,122.81L341.1,123.92L343.22,125.04L345.35,126.17L347.47,127.31L349.6,128.45L351.72,129.6L353.85,130.76L355.97,131.93L358.1,133.11L360.22,134.29L362.35,135.48L364.47,136.68L366.6,137.89L368.72,139.11L370.85,140.34L372.97,141.57L375.1,142.81L377.22,144.06L379.35,145.32L381.47,146.59L383.6,147.86L385.72,149.15L387.85,150.44L389.97,151.74L392.1,153.05L394.22,154.36L396.35,155.69L398.47,157.02L400.6,158.36L402.73,159.71L404.85,161.06L406.98,162.43L409.1,163.8L411.23,165.18L413.35,166.57L415.48,167.97L417.6,169.38L419.73,170.79L421.85,172.21L423.98,173.64L426.1,175.08L428.23,176.53L430.35,177.99L432.48,179.45L434.6,180.92L436.73,182.4L438.85,183.89L440.98,185.39L443.1,186.89L445.23,188.4L447.35,189.92L449.48,191.45L451.6,192.99L453.73,194.54L455.85,196.09L457.98,197.65L460.1,199.22L462.23,200.8L464.35,202.39L466.48,203.98L468.6,205.58L470.73,207.19L472.85,208.81L474.98,210.44L477.1,212.08L479.23,213.72L481.35,215.37L483.48,217.03L485.6,218.7L487.73,220.38L489.85,222.06L491.98,223.76L494.1,225.46L496.23,227.17L498.35,228.88L500.48,230.61L502.61,232.34L504.73,234.09L506.86,235.84L508.98,237.6L511.11,239.36L513.23,241.14L515.36,242.92L517.48,244.71L519.61,246.51L521.73,248.32L523.86,250.14L525.98,251.96L528.11,253.79L530.23,255.63L532.36,257.48L534.48,259.34L536.61,261.2L538.73,263.08L540.86,264.96L542.98,266.85L545.11,268.75L547.23,270.65L549.36,272.57L551.48,274.49L553.61,276.42L555.73,278.36L557.86,280.31L559.98,282.26L562.11,284.23L564.23,286.2L566.36,288.18L568.48,290.17L570.61,292.16L572.73,294.17L574.86,296.18L576.98,298.2L579.11,300.23L581.23,302.27L583.36,304.31L585.48,306.37L587.61,308.43L589.73,310.5L591.86,312.58L593.98,314.66L596.11,316.76L598.23,318.86L600.36,320.97L602.49,323.09L604.61,325.22L606.74,327.36L608.86,329.5L610.99,331.65L613.11,333.81L615.24,335.98L617.36,338.16L619.49,340.34L621.61,342.54L623.74,344.74L625.86,346.95L627.99,349.16L630.11,351.39L632.24,353.63L634.36,355.87L636.49,358.12L638.61,360.38L640.74,362.64L642.86,364.92L644.99,367.2L647.11,369.49L649.24,371.79L651.36,374.1L653.49,376.42L655.61,378.74L657.74,381.07L659.86,383.42L661.99,385.76L664.11,388.12L666.24,390.49L668.36,392.86L670.49,395.24L672.61,397.63L674.74,400.03L676.86,402.44L678.99,404.85L681.11,407.27L683.24,409.71L685.36,412.14L687.49,414.59L689.61,417.05L691.74,419.51L693.86,421.98L695.99,424.46L698.11,426.95L700.24,429.45L702.37,431.95L704.49,434.47L706.62,436.99L708.74,439.52L710.87,442.05L712.99,444.6L715.12,447.15L717.24,449.72L719.37,452.29L721.49,454.86L723.62,457.45L725.74,460.05L727.87,462.65L729.99,465.26L732.12,467.88L734.24,470.51L736.37,473.14L738.49,475.79L740.62,478.44L742.74,481.1L744.87,483.77L746.99,486.45L749.12,489.13L751.24,491.82L753.37,494.53L755.49,497.24L757.62,499.95L759.74,502.68L761.87,505.41L763.99,508.16L766.12,510.91L768.24,513.67L770.37,516.43L772.49,519.21L774.62,521.99L776.74,524.78L778.87,527.58L780.99,530.39L783.12,533.21L785.24,536.03L787.37,538.86L789.49,541.71L791.62,544.55L793.74,547.41L795.87,550.28L797.99,553.15L800.12,556.03L802.25,558.92L804.37,561.82L806.5,564.73L808.62,567.64L810.75,570.57L812.87,573.5L815,576.44L817.12,579.38L819.25,582.34L821.37,585.3L823.5,588.28L825.62,591.26L827.75,594.24L829.87,597.24L832,600.25L834.12,603.26L836.25,606.28L838.37,609.31L840.5,612.35L842.62,615.39L844.75,618.45L846.87,621.51L849,624.58L851.12,627.66L853.25,630.74L855.37,633.84L857.5,636.94L859.62,640.05L861.75,643.17L863.87,646.3L866,649.44L868.12,652.58L870.25,655.73L872.37,658.9L874.5,662.06L876.62,665.24L878.75,668.43L880.87,671.62L883,674.82L885.12,678.03L887.25,681.25L889.37,684.48L891.5,687.71L893.62,690.95L895.75,694.2L897.87,697.46L900,700.73" style="fill:none;stroke:#F15A60;stroke-width:1.25" />
<path d="M875,55.461L900,55.461" style="fill:none;stroke:#F15A60;stroke-width:1.25" />
<text x="835.43" y="-48.379" transform="scale(1, -1)"
	style="font-family:Times;font-weight:normal;font-style:normal;font-size:12pt">Interp</text>
</g>
</svg>
